<?xml version="1.0" encoding="UTF-8" standalone="no"?><svg xmlns="http://www.w3.org/2000/svg" xmlns:xlink="http://www.w3.org/1999/xlink" contentScriptType="application/ecmascript" contentStyleType="text/css" height="478.47px" preserveAspectRatio="none" style="width:1022px;height:478px;" version="1.1" viewBox="0 0 1022 478" width="1022.13px" zoomAndPan="magnify"><defs><filter height="300%" id="f10k98qnphr7hk" width="300%" x="-1" y="-1"><feGaussianBlur result="blurOut" stdDeviation="2.46"/><feColorMatrix in="blurOut" result="blurOut2" type="matrix" values="0 0 0 0 0 0 0 0 0 0 0 0 0 0 0 0 0 0 .4 0"/><feOffset dx="4.92" dy="4.92" in="blurOut2" result="blurOut3"/><feBlend in="SourceGraphic" in2="blurOut3" mode="normal"/></filter></defs><g><rect fill="#17ADF1" filter="url(#f10k98qnphr7hk)" height="48.1177" rx="15.375" ry="15.375" style="stroke:#A80036;stroke-width:1.845;" width="124.23" x="402.21" y="214.1927"/><text fill="#000000" font-family="sans-serif" font-size="17.22" lengthAdjust="spacing" textLength="99.63" x="414.51" y="246.2267">mall学习路线</text><rect fill="#90EE90" filter="url(#f10k98qnphr7hk)" height="48.1177" rx="15.375" ry="15.375" style="stroke:#A80036;stroke-width:1.845;" width="93.48" x="587.94" y="81.7211"/><text fill="#000000" font-family="sans-serif" font-size="17.22" lengthAdjust="spacing" textLength="68.88" x="600.24" y="113.7552">推荐资料</text><path d="M526.44,238.2515 L538.74,238.2515 C557.19,238.2515 557.19,105.78 575.64,105.78 L587.94,105.78 " fill="none" style="stroke:#A80036;stroke-width:1.23;"/><rect fill="#ADD8E6" filter="url(#f10k98qnphr7hk)" height="48.1177" rx="15.375" ry="15.375" style="stroke:#A80036;stroke-width:1.845;" width="110.7" x="587.94" y="154.4389"/><text fill="#000000" font-family="sans-serif" font-size="17.22" lengthAdjust="spacing" textLength="86.1" x="600.24" y="186.4729">后端技术栈</text><text fill="#000000" font-family="sans-serif" font-size="17.22" lengthAdjust="spacing" textLength="68.88" x="763.83" y="147.5063">项目框架</text><path d="M698.64,178.4977 L710.94,178.4977 C729.39,178.4977 729.39,139.5311 747.84,139.5311 L760.14,139.5311 " fill="none" style="stroke:#A80036;stroke-width:1.23;"/><text fill="#000000" font-family="sans-serif" font-size="17.22" lengthAdjust="spacing" textLength="68.88" x="763.83" y="173.4841">数据存储</text><path d="M698.64,178.4977 L710.94,178.4977 C729.39,178.4977 729.39,165.5089 747.84,165.5089 L760.14,165.5089 " fill="none" style="stroke:#A80036;stroke-width:1.23;"/><text fill="#000000" font-family="sans-serif" font-size="17.22" lengthAdjust="spacing" textLength="68.88" x="763.83" y="199.4618">运维部署</text><path d="M698.64,178.4977 L710.94,178.4977 C729.39,178.4977 729.39,191.4866 747.84,191.4866 L760.14,191.4866 " fill="none" style="stroke:#A80036;stroke-width:1.23;"/><text fill="#000000" font-family="sans-serif" font-size="17.22" lengthAdjust="spacing" textLength="34.44" x="763.83" y="225.4395">其他</text><path d="M698.64,178.4977 L710.94,178.4977 C729.39,178.4977 729.39,217.4644 747.84,217.4644 L760.14,217.4644 " fill="none" style="stroke:#A80036;stroke-width:1.23;"/><path d="M526.44,238.2515 L538.74,238.2515 C557.19,238.2515 557.19,178.4977 575.64,178.4977 L587.94,178.4977 " fill="none" style="stroke:#A80036;stroke-width:1.23;"/><rect fill="#FFA500" filter="url(#f10k98qnphr7hk)" height="48.1177" rx="15.375" ry="15.375" style="stroke:#A80036;stroke-width:1.845;" width="127.92" x="587.94" y="242.7532"/><text fill="#000000" font-family="sans-serif" font-size="17.22" lengthAdjust="spacing" textLength="103.32" x="600.24" y="274.7873">搭建项目骨架</text><path d="M526.44,238.2515 L538.74,238.2515 C557.19,238.2515 557.19,266.8121 575.64,266.8121 L587.94,266.8121 " fill="none" style="stroke:#A80036;stroke-width:1.23;"/><rect fill="#1DBAAF" filter="url(#f10k98qnphr7hk)" height="48.1177" rx="15.375" ry="15.375" style="stroke:#A80036;stroke-width:1.845;" width="93.48" x="587.94" y="331.0676"/><text fill="#000000" font-family="sans-serif" font-size="17.22" lengthAdjust="spacing" textLength="68.88" x="600.24" y="363.1016">项目部署</text><text fill="#000000" font-family="sans-serif" font-size="17.22" lengthAdjust="spacing" textLength="137.76" x="746.61" y="324.135">Windows下的部署</text><path d="M681.42,355.1265 L693.72,355.1265 C712.17,355.1265 712.17,316.1598 730.62,316.1598 L742.92,316.1598 " fill="none" style="stroke:#A80036;stroke-width:1.23;"/><text fill="#000000" font-family="sans-serif" font-size="17.22" lengthAdjust="spacing" textLength="182.04" x="746.61" y="350.1128">Linux下使用Docker部署</text><path d="M681.42,355.1265 L693.72,355.1265 C712.17,355.1265 712.17,342.1376 730.62,342.1376 L742.92,342.1376 " fill="none" style="stroke:#A80036;stroke-width:1.23;"/><text fill="#000000" font-family="sans-serif" font-size="17.22" lengthAdjust="spacing" textLength="260.76" x="746.61" y="376.0905">Linux下使用Docker Compose部署</text><path d="M681.42,355.1265 L693.72,355.1265 C712.17,355.1265 712.17,368.1153 730.62,368.1153 L742.92,368.1153 " fill="none" style="stroke:#A80036;stroke-width:1.23;"/><text fill="#000000" font-family="sans-serif" font-size="17.22" lengthAdjust="spacing" textLength="236.16" x="746.61" y="402.0683">Linux下使用Jenkins自动化部署</text><path d="M681.42,355.1265 L693.72,355.1265 C712.17,355.1265 712.17,394.0931 730.62,394.0931 L742.92,394.0931 " fill="none" style="stroke:#A80036;stroke-width:1.23;"/><path d="M526.44,238.2515 L538.74,238.2515 C557.19,238.2515 557.19,355.1265 575.64,355.1265 L587.94,355.1265 " fill="none" style="stroke:#A80036;stroke-width:1.23;"/><rect fill="#1DBAAF" filter="url(#f10k98qnphr7hk)" height="48.1177" rx="15.375" ry="15.375" style="stroke:#A80036;stroke-width:1.845;" width="93.48" x="247.23" y="40.1966"/><text fill="#000000" font-family="sans-serif" font-size="17.22" lengthAdjust="spacing" textLength="68.88" x="259.53" y="72.2307">电商业务</text><text fill="#000000" font-family="sans-serif" font-size="17.22" lengthAdjust="spacing" textLength="103.32" x="78.72" y="33.2641">权限管理模块</text><path d="M247.23,64.2555 L234.93,64.2555 C216.48,64.2555 216.48,25.2889 198.03,25.2889 L185.73,25.2889 " fill="none" style="stroke:#A80036;stroke-width:1.23;"/><text fill="#000000" font-family="sans-serif" font-size="17.22" lengthAdjust="spacing" textLength="68.88" x="113.16" y="59.2418">商品模块</text><path d="M247.23,64.2555 L234.93,64.2555 C216.48,64.2555 216.48,51.2666 198.03,51.2666 L185.73,51.2666 " fill="none" style="stroke:#A80036;stroke-width:1.23;"/><text fill="#000000" font-family="sans-serif" font-size="17.22" lengthAdjust="spacing" textLength="68.88" x="113.16" y="85.2195">订单模块</text><path d="M247.23,64.2555 L234.93,64.2555 C216.48,64.2555 216.48,77.2444 198.03,77.2444 L185.73,77.2444 " fill="none" style="stroke:#A80036;stroke-width:1.23;"/><text fill="#000000" font-family="sans-serif" font-size="17.22" lengthAdjust="spacing" textLength="68.88" x="113.16" y="111.1973">营销模块</text><path d="M247.23,64.2555 L234.93,64.2555 C216.48,64.2555 216.48,103.2221 198.03,103.2221 L185.73,103.2221 " fill="none" style="stroke:#A80036;stroke-width:1.23;"/><path d="M402.21,238.2515 L389.91,238.2515 C371.46,238.2515 371.46,64.2555 353.01,64.2555 L340.71,64.2555 " fill="none" style="stroke:#A80036;stroke-width:1.23;"/><rect fill="#FFA500" filter="url(#f10k98qnphr7hk)" height="48.1177" rx="15.375" ry="15.375" style="stroke:#A80036;stroke-width:1.845;" width="93.48" x="247.23" y="112.9144"/><text fill="#000000" font-family="sans-serif" font-size="17.22" lengthAdjust="spacing" textLength="68.88" x="259.53" y="144.9484">技术要点</text><path d="M402.21,238.2515 L389.91,238.2515 C371.46,238.2515 371.46,136.9732 353.01,136.9732 L340.71,136.9732 " fill="none" style="stroke:#A80036;stroke-width:1.23;"/><rect fill="#ADD8E6" filter="url(#f10k98qnphr7hk)" height="48.1177" rx="15.375" ry="15.375" style="stroke:#A80036;stroke-width:1.845;" width="110.7" x="230.01" y="185.6321"/><text fill="#000000" font-family="sans-serif" font-size="17.22" lengthAdjust="spacing" textLength="86.1" x="242.31" y="217.6662">前端技术栈</text><path d="M402.21,238.2515 L389.91,238.2515 C371.46,238.2515 371.46,209.691 353.01,209.691 L340.71,209.691 " fill="none" style="stroke:#A80036;stroke-width:1.23;"/><rect fill="#90EE90" filter="url(#f10k98qnphr7hk)" height="48.1177" rx="15.375" ry="15.375" style="stroke:#A80036;stroke-width:1.845;" width="110.7" x="230.01" y="258.3498"/><text fill="#000000" font-family="sans-serif" font-size="17.22" lengthAdjust="spacing" textLength="86.1" x="242.31" y="290.3839">进阶微服务</text><text fill="#000000" font-family="sans-serif" font-size="17.22" lengthAdjust="spacing" textLength="152.52" x="12.3" y="264.4062">Spring Cloud技术栈</text><path d="M230.01,282.4087 L217.71,282.4087 C199.26,282.4087 199.26,256.431 180.81,256.431 L168.51,256.431 " fill="none" style="stroke:#A80036;stroke-width:1.23;"/><text fill="#000000" font-family="sans-serif" font-size="17.22" lengthAdjust="spacing" textLength="68.88" x="95.94" y="290.3839">项目部署</text><path d="M230.01,282.4087 L217.71,282.4087 C199.26,282.4087 199.26,282.4087 180.81,282.4087 L168.51,282.4087 " fill="none" style="stroke:#A80036;stroke-width:1.23;"/><text fill="#000000" font-family="sans-serif" font-size="17.22" lengthAdjust="spacing" textLength="68.88" x="95.94" y="316.3616">技术要点</text><path d="M230.01,282.4087 L217.71,282.4087 C199.26,282.4087 199.26,308.3865 180.81,308.3865 L168.51,308.3865 " fill="none" style="stroke:#A80036;stroke-width:1.23;"/><path d="M402.21,238.2515 L389.91,238.2515 C371.46,238.2515 371.46,282.4087 353.01,282.4087 L340.71,282.4087 " fill="none" style="stroke:#A80036;stroke-width:1.23;"/><rect fill="#FFFF00" filter="url(#f10k98qnphr7hk)" height="48.1177" rx="15.375" ry="15.375" style="stroke:#A80036;stroke-width:1.845;" width="93.48" x="247.23" y="331.0676"/><text fill="#000000" font-family="sans-serif" font-size="17.22" lengthAdjust="spacing" textLength="68.88" x="259.53" y="363.1016">开发工具</text><path d="M402.21,238.2515 L389.91,238.2515 C371.46,238.2515 371.46,355.1265 353.01,355.1265 L340.71,355.1265 " fill="none" style="stroke:#A80036;stroke-width:1.23;"/><rect fill="#D3D3D3" filter="url(#f10k98qnphr7hk)" height="48.1177" rx="15.375" ry="15.375" style="stroke:#A80036;stroke-width:1.845;" width="93.48" x="247.23" y="403.7853"/><text fill="#000000" font-family="sans-serif" font-size="17.22" lengthAdjust="spacing" textLength="68.88" x="259.53" y="435.8194">扩展学习</text><path d="M402.21,238.2515 L389.91,238.2515 C371.46,238.2515 371.46,427.8442 353.01,427.8442 L340.71,427.8442 " fill="none" style="stroke:#A80036;stroke-width:1.23;"/><!--MD5=[b61a4acfac701bf444d4c4c0e96f11fc]
@startmindmap
+[#17ADF1] mall学习路线
++[#lightgreen] 推荐资料
++[#lightblue] 后端技术栈
+++_ 项目框架
+++_ 数据存储
+++_ 运维部署
+++_ 其他
++[#orange] 搭建项目骨架
++[#1DBAAF] 项目部署
+++_ Windows下的部署
+++_ Linux下使用Docker部署
+++_ Linux下使用Docker Compose部署
+++_ Linux下使用Jenkins自动化部署
- -[#1DBAAF] 电商业务
- - -_ 权限管理模块
- - -_ 商品模块
- - -_ 订单模块
- - -_ 营销模块
- -[#orange] 技术要点
- -[#lightblue] 前端技术栈
- -[#lightgreen] 进阶微服务
- - -_ Spring Cloud技术栈
- - -_ 项目部署
- - -_ 技术要点
- -[#yellow] 开发工具
- -[#lightgrey] 扩展学习
@endmindmap

PlantUML version 1.2021.00(Sun Jan 10 18:25:05 CST 2021)
(GPL source distribution)
Java Runtime: OpenJDK Runtime Environment
JVM: OpenJDK 64-Bit Server VM
Default Encoding: GBK
Language: zh
Country: CN
--></g></svg>